<svg width="21" height="21" viewBox="0 0 21 21" fill="none" xmlns="http://www.w3.org/2000/svg">
<path d="M8.53125 10.6103C9.78994 10.6057 10.9167 10.0433 11.6767 9.15666L11.6812 9.15076C12.2916 9.87329 13.1985 10.3294 14.2118 10.3294C16.0374 10.3294 17.5166 8.84954 17.5166 7.02451C17.5166 5.19948 16.0368 3.71963 14.2118 3.71963C13.4433 3.71963 12.7365 3.98213 12.1747 4.42182L12.182 4.41657C11.4562 3.11785 10.0905 2.25488 8.52272 2.25488C6.21534 2.25488 4.34503 4.1252 4.34503 6.43257C4.34503 8.73995 6.21534 10.6103 8.52272 10.6103C8.526 10.6103 8.52863 10.6103 8.53191 10.6103H8.53125ZM12.5685 5.36288C12.9905 4.94091 13.5739 4.68038 14.2177 4.68038C15.5065 4.68038 16.5513 5.72513 16.5513 7.01401C16.5513 8.30288 15.5065 9.34763 14.2177 9.34763C13.4013 9.34763 12.6827 8.92829 12.266 8.2937L12.2607 8.28516C12.5442 7.74441 12.7129 7.10391 12.7175 6.4247V6.42338C12.7122 6.04145 12.6558 5.6746 12.5554 5.32679L12.5626 5.35566L12.5685 5.36288ZM8.53125 3.22154C10.2998 3.22154 11.7331 4.65545 11.7331 6.42338C11.7331 8.19132 10.2992 9.62523 8.53125 9.62523C6.76331 9.62523 5.32941 8.19132 5.32941 6.42338C5.32941 6.42338 5.32941 6.42338 5.32941 6.42273C5.33138 4.65479 6.76397 3.22285 8.53191 3.22088L8.53125 3.22154ZM20.1679 16.4036C19.5523 13.6343 17.1176 11.5946 14.2058 11.5946C13.0738 11.5946 12.014 11.9031 11.1051 12.4405L11.1333 12.4248C10.3589 12.14 9.46444 11.9739 8.53125 11.9726H8.53059C4.78144 11.9884 1.64784 14.6062 0.841313 18.1125L0.830813 18.1657C0.823594 18.1972 0.819656 18.2333 0.819656 18.2707C0.819656 18.5424 1.04016 18.7629 1.31184 18.7629C1.54613 18.7629 1.74234 18.5988 1.79156 18.3789L1.79222 18.3757C2.49506 15.2539 5.24475 12.9564 8.53059 12.9564C11.8164 12.9564 14.5655 15.2532 15.2598 18.3297L15.2683 18.3757C15.3182 18.5988 15.5137 18.7629 15.7487 18.7629H15.7493C15.7867 18.7629 15.8228 18.7583 15.8576 18.7504L15.8543 18.751C16.0775 18.7012 16.2415 18.5049 16.2415 18.27C16.2415 18.2326 16.2376 18.1965 16.2297 18.1617L16.2304 18.165C15.7119 15.8983 14.2741 14.0405 12.3395 12.9701L12.2988 12.9498C12.8651 12.7149 13.522 12.5784 14.2118 12.5784C16.653 12.5784 18.6939 14.2905 19.2006 16.5795L19.2071 16.6136C19.257 16.8368 19.4526 17.0008 19.6875 17.0008C19.7249 17.0008 19.7617 16.9962 19.7964 16.9884L19.7932 16.989C20.0163 16.9391 20.1803 16.7429 20.1803 16.508C20.1803 16.4706 20.1764 16.4345 20.1685 16.3997L20.1692 16.403L20.1679 16.4036Z" fill="#A4A4A4"/>
</svg>
