<svg width="32" height="32" viewBox="0 0 32 32" fill="none" xmlns="http://www.w3.org/2000/svg"><g clip-path="url(#a)" fill="#000"><path d="M21.445 20.77H10.533a.553.553 0 0 0-.476.852 6.64 6.64 0 0 0 3.376 2.733v4.925h5.09v-4.925a7 7 0 0 0 3.398-2.733.553.553 0 0 0-.476-.852m.808-6.84h3.375a.61.61 0 0 0 .476-.232.63.63 0 0 0 .122-.31v-.01a.6.6 0 0 0 0-.134l-.83-3.32-1.107-4.238zM5.84 13.51q.026.136.111.243.108.133.266.2h13.844c.106 0 .21-.031.3-.089a.57.57 0 0 0 .276-.365l2.49-9.96a.6.6 0 0 0-.11-.51.6.6 0 0 0-.377-.154H8.85a.4.4 0 0 0-.232.066.5.5 0 0 0-.143.133 1 1 0 0 0-.078.177l-1.56 6.02-.996 3.973a.54.54 0 0 0 0 .266m5.457-5.721a.83.83 0 0 1 1.173 0l1.317 1.272 2.567-3.442a.83.83 0 1 1 1.328.996l-2.711 3.564a1.53 1.53 0 0 1-1.218.609 1.57 1.57 0 0 1-.918-.321 2 2 0 0 1-.155-.122l-1.383-1.383a.83.83 0 0 1 0-1.173m16.3 7.945H4.358a1.682 1.682 0 0 0 0 3.32h23.24a1.682 1.682 0 1 0 0-3.32"/></g><defs><clipPath id="a"><path fill="#fff" d="M0 0h32v32H0z"/></clipPath></defs></svg>