<svg width="18" height="17" viewBox="0 0 18 17" fill="none" xmlns="http://www.w3.org/2000/svg">
<path d="M17.2883 15.8424C16.0165 13.6436 14.0565 12.0669 11.7691 11.3195C12.9006 10.6459 13.7796 9.61962 14.2713 8.39813C14.763 7.17664 14.8401 5.82752 14.4908 4.55796C14.1415 3.2884 13.3851 2.16859 12.3378 1.37051C11.2905 0.572427 10.0102 0.140198 8.69345 0.140198C7.37672 0.140198 6.09639 0.572427 5.04909 1.37051C4.00178 2.16859 3.2454 3.2884 2.89612 4.55796C2.54683 5.82752 2.62395 7.17664 3.11562 8.39813C3.6073 9.61962 4.48634 10.6459 5.61777 11.3195C3.33042 12.0661 1.37043 13.6427 0.0985726 15.8424C0.0519311 15.9185 0.0209942 16.0031 0.00758707 16.0913C-0.00582004 16.1795 -0.00142575 16.2695 0.0205107 16.356C0.0424471 16.4424 0.0814814 16.5236 0.13531 16.5948C0.189139 16.6659 0.256672 16.7256 0.333925 16.7702C0.411178 16.8148 0.496586 16.8435 0.58511 16.8546C0.673634 16.8657 0.76348 16.8589 0.849348 16.8347C0.935216 16.8105 1.01537 16.7693 1.08507 16.7137C1.15477 16.658 1.21262 16.5889 1.25519 16.5105C2.82852 13.7914 5.60942 12.168 8.69345 12.168C11.7775 12.168 14.5584 13.7914 16.1317 16.5105C16.1743 16.5889 16.2321 16.658 16.3018 16.7137C16.3715 16.7693 16.4517 16.8105 16.5376 16.8347C16.6234 16.8589 16.7133 16.8657 16.8018 16.8546C16.8903 16.8435 16.9757 16.8148 17.053 16.7702C17.1302 16.7256 17.1978 16.6659 17.2516 16.5948C17.3054 16.5236 17.3445 16.4424 17.3664 16.356C17.3883 16.2695 17.3927 16.1795 17.3793 16.0913C17.3659 16.0031 17.335 15.9185 17.2883 15.8424ZM4.01688 6.15521C4.01688 5.23027 4.29115 4.3261 4.80502 3.55705C5.31889 2.78799 6.04927 2.18858 6.90381 1.83462C7.75834 1.48066 8.69864 1.38805 9.60581 1.56849C10.513 1.74894 11.3463 2.19434 12.0003 2.84837C12.6543 3.5024 13.0997 4.33569 13.2802 5.24286C13.4606 6.15002 13.368 7.09033 13.014 7.94486C12.6601 8.79939 12.0607 9.52978 11.2916 10.0436C10.5226 10.5575 9.61839 10.8318 8.69345 10.8318C7.45356 10.8305 6.26482 10.3373 5.38808 9.46059C4.51134 8.58385 4.0182 7.39511 4.01688 6.15521Z" fill="#A4A4A4"/>
</svg>
