<svg width="51" height="51" viewBox="0 0 51 51" fill="none" xmlns="http://www.w3.org/2000/svg">
<path d="M42.9596 6C43.1437 6.55738 42.6528 7.42441 42.4073 7.91985L41.7937 8.72495L41.3641 9.34426C40.6835 10.2844 39.9879 11.2135 39.2777 12.1311L38.7255 12.8124C37.9837 13.7311 37.2058 14.6195 36.3936 15.4754L35.8413 16.0328C35.6164 16.2393 35.3914 16.4457 35.1663 16.6521C34.0618 17.7049 34.0618 17.7049 33.5708 17.7049L33.5095 17.5191V17.3333L33.4481 17.0856L33.3254 16.8379C32.7731 16.8998 32.4663 17.0856 32.1595 17.4572L31.6685 17.8907C30.878 18.5328 30.1202 19.2149 29.398 19.9344L28.6617 20.6157C27.9394 21.2921 27.2029 21.9529 26.4526 22.5974L26.3298 22.6594C26.168 22.7857 26.0044 22.9096 25.8389 23.031C25.5321 23.2787 25.2866 23.3406 24.9184 23.3406C23.998 23.4026 23.5071 23.898 22.9548 24.5792L22.832 24.7031L22.3411 25.2605L21.7888 25.8798L21.1138 26.623C19.8589 27.9199 18.6513 29.2626 17.4933 30.6485C16.1443 32.0562 14.8347 33.5018 13.566 34.9836C12.5842 36.0984 11.6023 37.1512 10.375 37.9563L9.39322 38.6995C8.8384 39.1621 8.21782 39.5378 7.55228 39.8142L7 40L7.36819 39.2568C7.47062 39.1331 7.5729 39.0092 7.67501 38.8852L8.10456 38.204L8.35002 37.8324L8.41138 37.7086L8.96366 36.8415L9.08639 36.6557C10.1292 35.0453 11.1724 33.4351 12.216 31.8251L12.8296 30.9581L13.0137 30.5865L13.5046 29.8434L13.6274 29.6576C13.8927 29.2443 14.1586 28.8314 14.4251 28.4189L14.5478 28.2332L14.7933 27.8616C15.2228 27.1803 15.5297 26.8087 16.3274 26.561C16.8797 26.3752 17.3092 26.1275 17.7388 25.7559L17.8615 25.6321L18.5365 24.827C19.2434 23.8577 20.0013 22.9274 20.807 22.0401C21.6849 20.9984 22.5241 19.9242 23.323 18.8197L23.4457 18.6958C24.4889 17.3333 25.7162 15.9089 27.4957 15.4754L27.9253 15.5373V16.1566L27.8639 16.4044L27.8026 16.5902C28.6617 16.5282 29.214 16.4044 29.8276 15.847L30.5026 15.2896C30.7691 15.0839 31.035 14.8774 31.3003 14.6703C32.276 13.9326 33.18 13.1032 34.0004 12.1931L34.3072 11.8834C34.6754 11.5738 35.1663 11.4499 35.6572 11.326C36.3322 11.2022 36.8232 10.9545 37.3141 10.5209L37.9277 10.0255L38.1118 9.83971L39.4005 8.78689C40.169 8.22464 40.926 7.64649 41.671 7.05282L42.4687 6.37158L42.9596 6Z" fill="white"/>
<path d="M46 15L45.7509 15.4938L45.6887 15.679L45.5642 15.8642L45.4396 15.9877C44.289 17.7173 43.1058 19.4255 41.8906 21.1111L41.766 21.2346C40.3284 22.9321 38.8545 24.5992 37.3453 26.2346L36.9717 26.4815L36.8472 26.6049L36.5981 26.7901C36.2868 26.9753 36.1 27.037 35.7264 26.9753L35.3528 26.6049C35.2283 26.4815 35.0415 26.4198 34.8547 26.4815C34.6057 26.4815 34.4811 26.6667 34.3566 26.8519L34.1075 27.037L33.983 27.1605L33.6717 27.4691L32.8 28.2099L31.9283 28.9506C31.4825 29.3305 31.0465 29.7216 30.6208 30.1235L30.1849 30.4938C28.8151 31.7284 28.8151 31.7284 27.8811 31.7901C27.3208 31.8519 27.0717 32.0988 26.6981 32.4691C26.4718 32.6974 26.2435 32.9238 26.0132 33.1481L25.5151 33.642C23.9275 35.1961 22.3706 36.7808 20.8453 38.3951L20.7208 38.5185C19.7256 39.6125 18.75 40.7238 17.7943 41.8519L17.3585 42.3457L16.6736 43.0247L16.5491 43.1481C16.3 43.3951 16.0509 43.5185 15.7396 43.7037C15.1749 44.0046 14.6145 44.3133 14.0585 44.6296L13.6849 44.8148L13.4981 44.9383L13.3113 45H13C14.3286 42.9702 15.6778 40.9536 17.0472 38.9506L17.1717 38.7654C17.7992 37.8841 18.4219 36.9993 19.0396 36.1111L19.1642 35.9877L19.2887 35.9259C19.5377 35.5967 19.7868 35.2675 20.0358 34.9383L20.1604 34.7531C20.534 34.321 20.8453 34.0741 21.4057 33.9506H22.0906L22.1528 33.8272L22.5264 33.3333L22.7132 33.0864L22.8377 33.0247L23.2736 32.4074L24.5189 30.9259C25.4619 29.8016 26.3959 28.6699 27.3208 27.5309L27.4453 27.4074C27.6334 27.1822 27.8202 26.9558 28.0057 26.7284L28.0679 26.6049C28.4415 26.1111 28.8151 25.8025 29.4377 25.6173L29.5623 25.5556L29.9981 25.4321L30.1226 25.3704H30.9321C31.1189 25.5556 31.1189 25.6173 31.1189 25.8642L31.1811 26.0494V26.2346L31.4302 26.1111L31.5547 25.9877L32.0528 25.5556C32.6174 25.0675 33.1576 24.5525 33.6717 24.0123L34.5434 23.2716C35.7409 22.1538 36.9447 21.0427 38.1547 19.9383L38.3415 19.8148L38.4038 19.7531L38.6528 19.5062C39.1509 18.9506 39.7113 18.9506 40.3962 18.8889C41.1434 18.8272 41.517 18.5802 42.0774 18.0247L42.3887 17.7778L43.5717 16.7901C43.9842 16.4373 44.3993 16.0875 44.817 15.7407L44.9415 15.6173L45.1283 15.4321C45.6264 15 45.6264 15 46 15Z" fill="#F30503"/>
<path d="M29 7.00081V7.12746L28.8135 7.31743L28.6269 7.38075L28.5026 7.50739L28.1917 7.76068L28.0052 7.88733L27.1969 8.52055C25.6848 9.75919 24.1294 10.942 22.5337 12.0666C21.8187 12.6296 21.0932 13.1785 20.3575 13.713C19.6114 14.2829 19.114 14.5362 18.1813 14.5362L18.1192 14.6628C17.7647 15.0436 17.4325 15.4454 17.1244 15.8659C16.7747 16.3493 16.4012 16.8143 16.0052 17.259L15.3834 17.9556C14.9202 18.4365 14.4843 18.9439 14.0777 19.4753L13.829 19.7286C13.5803 20.1085 13.2694 20.2985 12.8964 20.4252H12.772L12.7098 20.5518L12.4611 20.9317L12.399 21.0584L12.2746 21.2484L12.0259 21.565L11.9016 21.6916C11.0256 22.8324 10.1757 23.9936 9.35233 25.1743C8.89671 25.8649 8.41979 26.5407 7.92228 27.2007C7.08983 28.3537 6.23999 29.4937 5.37306 30.6201L5.2487 30.81L5 31C5.01308 30.4931 5.03381 29.9865 5.06218 29.4803C5.04634 28.0592 5.3438 26.6527 5.93264 25.3643C7.17617 21.7549 7.17617 21.7549 8.54404 20.7418C9.10363 20.2985 9.47668 19.7919 9.84974 19.222L10.4715 18.3988L10.5959 18.2089C11.0308 17.6176 11.466 17.0266 11.9016 16.4359C12.8342 15.1061 13.829 14.2829 15.3212 13.523C16.5026 12.8265 17.4352 11.8766 18.4301 10.8635C19.487 9.66035 20.6062 9.02713 22.1606 8.77384C22.5959 8.71052 23.0311 8.45723 23.4663 8.26726C25.189 7.41224 27.0838 6.97858 29 7.00081Z" fill="#02FC05"/>
</svg>
