<svg width="47" height="47" viewBox="0 0 47 47" fill="none" xmlns="http://www.w3.org/2000/svg">
<rect x="0.101562" y="0.861542" width="46" height="45.2923" rx="22.6462" fill="#181818" fill-opacity="0.5"/>
<rect x="0.601562" y="1.36154" width="45" height="44.2923" rx="22.1462" stroke="#EFE7D2" stroke-opacity="0.15"/>
<path d="M22.9998 23.3615C21.4415 23.3615 20.1075 22.7904 18.9978 21.648C17.888 20.5056 17.3332 19.1324 17.3332 17.5282C17.3332 15.924 17.888 14.5508 18.9978 13.4084C20.1075 12.2661 21.4415 11.6949 22.9998 11.6949C24.5582 11.6949 25.8922 12.2661 27.0019 13.4084C28.1116 14.5508 28.6665 15.924 28.6665 17.5282C28.6665 19.1324 28.1116 20.5056 27.0019 21.648C25.8922 22.7904 24.5582 23.3615 22.9998 23.3615ZM11.6665 35.0282V30.9449C11.6665 30.1185 11.8731 29.3589 12.2863 28.6662C12.6995 27.9735 13.2484 27.4449 13.9332 27.0803C15.3971 26.3268 16.8846 25.7617 18.3957 25.385C19.9068 25.0082 21.4415 24.8199 22.9998 24.8199C24.5582 24.8199 26.0929 25.0082 27.604 25.385C29.1151 25.7617 30.6026 26.3268 32.0665 27.0803C32.7512 27.4449 33.3002 27.9735 33.7134 28.6662C34.1266 29.3589 34.3332 30.1185 34.3332 30.9449V35.0282H11.6665ZM14.4998 32.1115H31.4998V30.9449C31.4998 30.6775 31.4349 30.4345 31.305 30.2157C31.1752 29.997 31.004 29.8268 30.7915 29.7053C29.5165 29.049 28.2297 28.5569 26.9311 28.2287C25.6325 27.9006 24.3221 27.7365 22.9998 27.7365C21.6776 27.7365 20.3672 27.9006 19.0686 28.2287C17.77 28.5569 16.4832 29.049 15.2082 29.7053C14.9957 29.8268 14.8245 29.997 14.6946 30.2157C14.5648 30.4345 14.4998 30.6775 14.4998 30.9449V32.1115ZM22.9998 20.4449C23.779 20.4449 24.446 20.1593 25.0009 19.5881C25.5557 19.0169 25.8332 18.3303 25.8332 17.5282C25.8332 16.7261 25.5557 16.0395 25.0009 15.4683C24.446 14.8971 23.779 14.6115 22.9998 14.6115C22.2207 14.6115 21.5537 14.8971 20.9988 15.4683C20.4439 16.0395 20.1665 16.7261 20.1665 17.5282C20.1665 18.3303 20.4439 19.0169 20.9988 19.5881C21.5537 20.1593 22.2207 20.4449 22.9998 20.4449Z" fill="#767676" fill-opacity="0.7"/>
</svg>
