<svg width="19" height="19" viewBox="0 0 19 19" fill="none" xmlns="http://www.w3.org/2000/svg">
<path d="M3.26562 16.0312H5.04688C5.21105 16.0312 5.34375 15.8985 5.34375 15.7344V14.25C5.34375 14.0858 5.21105 13.9531 5.04688 13.9531H3.26562C3.10145 13.9531 2.96875 14.0858 2.96875 14.25V15.7344C2.96875 15.8985 3.10145 16.0312 3.26562 16.0312ZM3.5625 14.5469H4.75V15.4375H3.5625V14.5469Z" fill="#A4A4A4"/>
<path d="M6.82812 16.0312H8.60938C8.77355 16.0312 8.90625 15.8985 8.90625 15.7344V14.25C8.90625 14.0858 8.77355 13.9531 8.60938 13.9531H6.82812C6.66395 13.9531 6.53125 14.0858 6.53125 14.25V15.7344C6.53125 15.8985 6.66395 16.0312 6.82812 16.0312ZM7.125 14.5469H8.3125V15.4375H7.125V14.5469Z" fill="#A4A4A4"/>
<path d="M10.3906 16.0312H12.1719C12.336 16.0312 12.4688 15.8985 12.4688 15.7344V14.25C12.4688 14.0858 12.336 13.9531 12.1719 13.9531H10.3906C10.2265 13.9531 10.0938 14.0858 10.0938 14.25V15.7344C10.0938 15.8985 10.2265 16.0312 10.3906 16.0312ZM10.6875 14.5469H11.875V15.4375H10.6875V14.5469Z" fill="#A4A4A4"/>
<path d="M3.26562 12.7656H5.04688C5.21105 12.7656 5.34375 12.6329 5.34375 12.4688V10.9844C5.34375 10.8202 5.21105 10.6875 5.04688 10.6875H3.26562C3.10145 10.6875 2.96875 10.8202 2.96875 10.9844V12.4688C2.96875 12.6329 3.10145 12.7656 3.26562 12.7656ZM3.5625 11.2812H4.75V12.1719H3.5625V11.2812Z" fill="#A4A4A4"/>
<path d="M6.82812 12.7656H8.60938C8.77355 12.7656 8.90625 12.6329 8.90625 12.4688V10.9844C8.90625 10.8202 8.77355 10.6875 8.60938 10.6875H6.82812C6.66395 10.6875 6.53125 10.8202 6.53125 10.9844V12.4688C6.53125 12.6329 6.66395 12.7656 6.82812 12.7656ZM7.125 11.2812H8.3125V12.1719H7.125V11.2812Z" fill="#A4A4A4"/>
<path d="M10.3906 12.7656H12.1719C12.336 12.7656 12.4688 12.6329 12.4688 12.4688V10.9844C12.4688 10.8202 12.336 10.6875 12.1719 10.6875H10.3906C10.2265 10.6875 10.0938 10.8202 10.0938 10.9844V12.4688C10.0938 12.6329 10.2265 12.7656 10.3906 12.7656ZM10.6875 11.2812H11.875V12.1719H10.6875V11.2812Z" fill="#A4A4A4"/>
<path d="M13.9531 12.7656H15.7344C15.8985 12.7656 16.0312 12.6329 16.0312 12.4688V10.9844C16.0312 10.8202 15.8985 10.6875 15.7344 10.6875H13.9531C13.789 10.6875 13.6562 10.8202 13.6562 10.9844V12.4688C13.6562 12.6329 13.789 12.7656 13.9531 12.7656ZM14.25 11.2812H15.4375V12.1719H14.25V11.2812Z" fill="#A4A4A4"/>
<path d="M3.26562 9.5H5.04688C5.21105 9.5 5.34375 9.3673 5.34375 9.20312V7.71875C5.34375 7.55458 5.21105 7.42188 5.04688 7.42188H3.26562C3.10145 7.42188 2.96875 7.55458 2.96875 7.71875V9.20312C2.96875 9.3673 3.10145 9.5 3.26562 9.5ZM3.5625 8.01562H4.75V8.90625H3.5625V8.01562Z" fill="#A4A4A4"/>
<path d="M6.82812 9.5H8.60938C8.77355 9.5 8.90625 9.3673 8.90625 9.20312V7.71875C8.90625 7.55458 8.77355 7.42188 8.60938 7.42188H6.82812C6.66395 7.42188 6.53125 7.55458 6.53125 7.71875V9.20312C6.53125 9.3673 6.66395 9.5 6.82812 9.5ZM7.125 8.01562H8.3125V8.90625H7.125V8.01562Z" fill="#A4A4A4"/>
<path d="M10.3906 9.5H12.1719C12.336 9.5 12.4688 9.3673 12.4688 9.20312V7.71875C12.4688 7.55458 12.336 7.42188 12.1719 7.42188H10.3906C10.2265 7.42188 10.0938 7.55458 10.0938 7.71875V9.20312C10.0938 9.3673 10.2265 9.5 10.3906 9.5ZM10.6875 8.01562H11.875V8.90625H10.6875V8.01562Z" fill="#A4A4A4"/>
<path d="M13.9531 9.5H15.7344C15.8985 9.5 16.0312 9.3673 16.0312 9.20312V7.71875C16.0312 7.55458 15.8985 7.42188 15.7344 7.42188H13.9531C13.789 7.42188 13.6562 7.55458 13.6562 7.71875V9.20312C13.6562 9.3673 13.789 9.5 13.9531 9.5ZM14.25 8.01562H15.4375V8.90625H14.25V8.01562Z" fill="#A4A4A4"/>
<path d="M17.8125 1.1875H15.7344V0.890625C15.7344 0.398703 15.3357 0 14.8438 0C14.3518 0 13.9531 0.398703 13.9531 0.890625V1.1875H5.04688V0.890625C5.04688 0.398703 4.64817 0 4.15625 0C3.66433 0 3.26562 0.398703 3.26562 0.890625V1.1875H1.1875C0.531109 1.1875 0 1.71861 0 2.375V17.8125C0 18.4689 0.531109 19 1.1875 19H17.8125C18.4689 19 19 18.4689 19 17.8125V2.375C19 1.71861 18.4689 1.1875 17.8125 1.1875ZM14.5469 0.890625C14.5469 0.726453 14.6796 0.59375 14.8438 0.59375C15.0079 0.59375 15.1406 0.726453 15.1406 0.890625V1.78125V2.96875C15.1406 3.13292 15.0079 3.26562 14.8438 3.26562C14.6796 3.26562 14.5469 3.13292 14.5469 2.96875V1.78125V0.890625ZM3.85938 0.890625C3.85938 0.726453 3.99208 0.59375 4.15625 0.59375C4.32042 0.59375 4.45312 0.726453 4.45312 0.890625V1.78125V2.96875C4.45312 3.13292 4.32042 3.26562 4.15625 3.26562C3.99208 3.26562 3.85938 3.13292 3.85938 2.96875V1.78125V0.890625ZM18.4062 17.8125C18.4062 18.1402 18.1402 18.4062 17.8125 18.4062H1.1875C0.85975 18.4062 0.59375 18.1402 0.59375 17.8125V5.04688H18.4062V17.8125ZM18.4062 4.45312H0.59375V2.375C0.59375 2.04725 0.85975 1.78125 1.1875 1.78125H3.26562V2.96875C3.26562 3.46067 3.66433 3.85938 4.15625 3.85938C4.64817 3.85938 5.04688 3.46067 5.04688 2.96875V1.78125H13.9531V2.96875C13.9531 3.46067 14.3518 3.85938 14.8438 3.85938C15.3357 3.85938 15.7344 3.46067 15.7344 2.96875V1.78125H17.8125C18.1402 1.78125 18.4062 2.04725 18.4062 2.375V4.45312Z" fill="#A4A4A4"/>
</svg>
