<svg width="51" height="51" viewBox="0 0 51 51" fill="none" xmlns="http://www.w3.org/2000/svg">
<path d="M38.911 11.0028C39.0527 11.4278 38.6749 12.0889 38.486 12.4667L38.0138 13.0806L37.6832 13.5528C37.1594 14.2697 36.6242 14.9781 36.0777 15.6778L35.6527 16.1972C35.0818 16.8977 34.4832 17.5751 33.8582 18.2278L33.4332 18.6528C33.2601 18.8102 33.087 18.9676 32.9138 19.125C32.0638 19.9278 32.0638 19.9278 31.686 19.9278L31.6388 19.7861V19.6444L31.5915 19.4556L31.4971 19.2667C31.0721 19.3139 30.836 19.4556 30.5999 19.7389L30.2221 20.0694C29.6137 20.559 29.0306 21.0791 28.4749 21.6278L27.9082 22.1472C27.3524 22.663 26.7856 23.1668 26.2082 23.6583L26.1138 23.7056C25.9893 23.8019 25.8633 23.8963 25.736 23.9889C25.4999 24.1778 25.311 24.225 25.0277 24.225C24.3193 24.2722 23.9415 24.65 23.5165 25.1694L23.4221 25.2639L23.0443 25.6889L22.6193 26.1611L22.0999 26.7278C21.1342 27.7167 20.2049 28.7405 19.3138 29.7972C18.2757 30.8706 17.2679 31.9729 16.2915 33.1028C15.536 33.9528 14.7804 34.7556 13.836 35.3694L13.0804 35.9361C12.6535 36.2888 12.1759 36.5754 11.6638 36.7861L11.2388 36.9278L11.5221 36.3611C11.6009 36.2668 11.6796 36.1723 11.7582 36.0778L12.0888 35.5583L12.2777 35.275L12.3249 35.1806L12.7499 34.5194L12.8443 34.3778C13.6468 33.1498 14.4496 31.922 15.2527 30.6944L15.7249 30.0333L15.8665 29.75L16.2443 29.1833L16.3388 29.0417C16.5429 28.7265 16.7476 28.4117 16.9527 28.0972L17.0471 27.9556L17.236 27.6722C17.5665 27.1528 17.8027 26.8694 18.4165 26.6806C18.8415 26.5389 19.1721 26.35 19.5027 26.0667L19.5971 25.9722L20.1165 25.3583C20.6605 24.6192 21.2438 23.9099 21.8638 23.2333C22.5393 22.4391 23.1852 21.62 23.7999 20.7778L23.8943 20.6833C24.6971 19.6444 25.6415 18.5583 27.011 18.2278L27.3415 18.275V18.7472L27.2943 18.9361L27.2471 19.0778C27.9082 19.0306 28.3332 18.9361 28.8054 18.5111L29.3249 18.0861C29.5299 17.9292 29.7346 17.7718 29.9388 17.6139C30.6896 17.0514 31.3853 16.4189 32.0166 15.725L32.2527 15.4889C32.536 15.2528 32.9138 15.1583 33.2915 15.0639C33.811 14.9694 34.1888 14.7806 34.5665 14.45L35.0388 14.0722L35.1804 13.9306L36.1721 13.1278C36.7635 12.6991 37.346 12.2582 37.9193 11.8056L38.5332 11.2861L38.911 11.0028Z" fill="white"/>
<path d="M41.225 18.0861L41.0362 18.4639L40.9889 18.6056L40.8945 18.7472L40.8 18.8417C39.9274 20.1649 39.03 21.4716 38.1084 22.7611L38.0139 22.8556C36.9236 24.1542 35.8058 25.4295 34.6612 26.6806L34.3778 26.8694L34.2834 26.9639L34.0945 27.1056C33.8584 27.2472 33.7167 27.2944 33.4334 27.2472L33.15 26.9639C33.0556 26.8694 32.9139 26.8222 32.7723 26.8694C32.5834 26.8694 32.4889 27.0111 32.3945 27.1528L32.2056 27.2944L32.1112 27.3889L31.875 27.625L31.2139 28.1917L30.5528 28.7583C30.2147 29.049 29.8841 29.3481 29.5612 29.6556L29.2306 29.9389C28.1917 30.8833 28.1917 30.8833 27.4834 30.9306C27.0584 30.9778 26.8695 31.1667 26.5862 31.45C26.4145 31.6247 26.2414 31.7978 26.0667 31.9694L25.6889 32.3472C24.4849 33.5362 23.3041 34.7484 22.1473 35.9833L22.0528 36.0778C21.2981 36.9147 20.5582 37.7648 19.8334 38.6278L19.5028 39.0056L18.9834 39.525L18.8889 39.6194C18.7 39.8083 18.5112 39.9028 18.275 40.0444C17.8468 40.2746 17.4217 40.5108 17 40.7528L16.7167 40.8944L16.575 40.9889L16.4334 41.0361H16.1973C17.2049 39.4833 18.2281 37.9406 19.2667 36.4083L19.3612 36.2667C19.8371 35.5924 20.3093 34.9156 20.7778 34.2361L20.8723 34.1417L20.9667 34.0944C21.1556 33.8426 21.3445 33.5907 21.5334 33.3389L21.6278 33.1972C21.9112 32.8667 22.1473 32.6778 22.5723 32.5833H23.0917L23.1389 32.4889L23.4223 32.1111L23.5639 31.9222L23.6584 31.875L23.9889 31.4028L24.9334 30.2694C25.6486 29.4093 26.3569 28.5436 27.0584 27.6722L27.1528 27.5778C27.2955 27.4055 27.4372 27.2323 27.5778 27.0583L27.625 26.9639C27.9084 26.5861 28.1917 26.35 28.6639 26.2083L28.7584 26.1611L29.0889 26.0667L29.1834 26.0194H29.7973C29.9389 26.1611 29.9389 26.2083 29.9389 26.3972L29.9862 26.5389V26.6806L30.175 26.5861L30.2695 26.4917L30.6473 26.1611C31.0754 25.7877 31.4852 25.3938 31.875 24.9806L32.5362 24.4139C33.4444 23.5588 34.3573 22.7088 35.275 21.8639L35.4167 21.7694L35.4639 21.7222L35.6528 21.5333C36.0306 21.1083 36.4556 21.1083 36.975 21.0611C37.5417 21.0139 37.825 20.825 38.25 20.4L38.4862 20.2111L39.3834 19.4556C39.6962 19.1857 40.011 18.9181 40.3278 18.6528L40.4223 18.5583L40.5639 18.4167C40.9417 18.0861 40.9417 18.0861 41.225 18.0861Z" fill="#F30503"/>
<path d="M28.4749 12.2306V12.325L28.3332 12.4667L28.1915 12.5139L28.0971 12.6083L27.861 12.7972L27.7193 12.8917L27.1054 13.3639C25.957 14.2876 24.7757 15.1697 23.5637 16.0083C23.0207 16.4282 22.4697 16.8375 21.911 17.2361C21.3443 17.6611 20.9665 17.85 20.2582 17.85L20.211 17.9444C19.9417 18.2284 19.6894 18.528 19.4554 18.8417C19.1898 19.2021 18.9061 19.5489 18.6054 19.8806L18.1332 20.4C17.7814 20.7586 17.4503 21.137 17.1415 21.5333L16.9526 21.7222C16.7637 22.0056 16.5276 22.1472 16.2443 22.2417H16.1498L16.1026 22.3361L15.9137 22.6194L15.8665 22.7139L15.7721 22.8556L15.5832 23.0917L15.4887 23.1861C14.8235 24.0368 14.1779 24.9028 13.5526 25.7833C13.2066 26.2983 12.8444 26.8023 12.4665 27.2944C11.8343 28.1543 11.1888 29.0044 10.5304 29.8444L10.436 29.9861L10.2471 30.1278C10.257 29.7498 10.2728 29.372 10.2943 28.9944C10.2823 27.9347 10.5082 26.8858 10.9554 25.925C11.8998 23.2333 11.8998 23.2333 12.9387 22.4778C13.3637 22.1472 13.6471 21.7694 13.9304 21.3444L14.4026 20.7306L14.4971 20.5889C14.8274 20.148 15.1579 19.7072 15.4887 19.2667C16.1971 18.275 16.9526 17.6611 18.086 17.0944C18.9832 16.575 19.6915 15.8667 20.4471 15.1111C21.2499 14.2139 22.0999 13.7417 23.2804 13.5528C23.611 13.5056 23.9415 13.3167 24.2721 13.175C25.5804 12.5374 27.0195 12.214 28.4749 12.2306Z" fill="#02FC05"/>
</svg>
