<svg width="20" height="20" viewBox="0 0 20 20" fill="none" xmlns="http://www.w3.org/2000/svg">
<path d="M19.1482 14.47C19.0801 14.0475 18.9395 13.6687 18.7395 13.3294L18.7476 13.3444C18.6764 13.2281 18.5595 13.1462 18.422 13.1237L18.4195 13.1231L12.8139 12.2331C12.792 12.2294 12.7664 12.2275 12.7407 12.2275C12.6114 12.2275 12.4939 12.2794 12.4089 12.3637C11.987 12.7887 11.6626 13.3112 11.4739 13.895L11.4664 13.9225C8.95699 12.8975 7.00449 10.9444 6.00262 8.50124L5.97887 8.43561C6.58949 8.23874 7.11262 7.91499 7.53699 7.49249C7.62199 7.40749 7.67449 7.28999 7.67449 7.16061C7.67449 7.13499 7.67262 7.10999 7.66824 7.08499L7.66887 7.08749L6.77949 1.48124C6.75637 1.34061 6.67387 1.22311 6.55887 1.15374L6.55699 1.15249C6.24137 0.964985 5.87324 0.827485 5.48012 0.761235L5.46137 0.758735C5.28449 0.713735 5.08137 0.68811 4.87199 0.68811C4.83262 0.68811 4.79324 0.688735 4.75387 0.69061H4.75949C2.57324 0.706235 0.805742 2.47499 0.791992 4.65999V4.66124C0.801367 12.6369 7.26387 19.1 15.2389 19.1087C17.4264 19.0956 19.197 17.3262 19.2107 15.1406V15.1394C19.2107 15.1237 19.2114 15.1056 19.2114 15.0869C19.2114 14.8681 19.1882 14.655 19.1451 14.4487L19.1489 14.4687L19.1482 14.47ZM15.2395 18.1725C7.78137 18.1637 1.73824 12.12 1.72949 4.66311C1.74137 2.99186 3.09324 1.63999 4.76387 1.62874H4.76512C4.77387 1.62874 4.78387 1.62874 4.79387 1.62874C4.96574 1.62874 5.13387 1.64749 5.29512 1.68249L5.27949 1.67936C5.50887 1.71686 5.71387 1.78061 5.90574 1.86749L5.89012 1.86124L6.70324 6.98686C6.31074 7.31749 5.82574 7.55061 5.29262 7.64374L5.27449 7.64624C5.05262 7.68624 4.88699 7.87749 4.88699 8.10811C4.88699 8.16311 4.89637 8.21561 4.91387 8.26436L4.91262 8.26124C6.02074 11.4312 8.47262 13.8825 11.5664 14.9675L11.642 14.9906C11.6876 15.0069 11.7401 15.0162 11.7945 15.0162C11.882 15.0162 11.9645 14.9925 12.0345 14.9506L12.0326 14.9519C12.1489 14.8825 12.2314 14.7675 12.2557 14.6325L12.2564 14.6294C12.352 14.0775 12.5851 13.5919 12.9195 13.1944L12.9157 13.1987L18.0414 14.0131C18.1245 14.1981 18.1901 14.4137 18.227 14.6387L18.2289 14.6537C18.257 14.7862 18.2732 14.9381 18.2732 15.0937C18.2732 15.1087 18.2732 15.1244 18.2726 15.1394V15.1369C18.2626 16.8087 16.9107 18.1612 15.2401 18.1725H15.2395Z" fill="#A4A4A4"/>
</svg>
