<svg width="21" height="21" viewBox="0 0 21 21" fill="none" xmlns="http://www.w3.org/2000/svg">
<path d="M10.5 0C4.70137 0 0 4.70072 0 10.5C0 16.2993 4.70072 21 10.5 21C16.2993 21 21 16.2993 21 10.5C21 4.70072 16.2993 0 10.5 0ZM10.5 19.7085C5.43375 19.7085 1.3125 15.5662 1.3125 10.5C1.3125 5.43375 5.43375 1.3125 10.5 1.3125C15.5662 1.3125 19.6875 5.43375 19.6875 10.5C19.6875 15.5662 15.5662 19.7085 10.5 19.7085ZM11.1562 10.2336V3.9375C11.1562 3.57525 10.8623 3.28125 10.5 3.28125C10.1377 3.28125 9.84375 3.57525 9.84375 3.9375V10.5C9.84375 10.6857 9.92119 10.8524 10.0459 10.9718C10.057 10.985 10.0656 10.9987 10.0774 11.0106L13.3252 14.259C13.5811 14.5149 13.9965 14.5149 14.2531 14.259C14.5097 14.0031 14.509 13.587 14.2531 13.3304L11.1562 10.2336Z" fill="#A4A4A4"/>
</svg>
