<svg width="20" height="20" viewBox="0 0 20 20" fill="none" xmlns="http://www.w3.org/2000/svg">
<g clip-path="url(#clip0_5778_60)">
<path d="M17.6427 0.15686C17.4915 0.0793599 17.3015 0.13936 17.2221 0.29311C14.8009 5.01999 14.5202 8.88186 14.4927 9.99999H5.31899C4.88711 9.99999 4.51274 10.2931 4.40899 10.7137L2.19711 19.695C2.15586 19.8625 2.25836 20.0319 2.42586 20.0725C2.45086 20.0787 2.47586 20.0819 2.50024 20.0819C2.64149 20.0819 2.76899 19.9869 2.80336 19.8437L5.01524 10.8631C5.05024 10.7225 5.17461 10.625 5.31899 10.625H14.594L16.734 19.7587C16.7677 19.9031 16.8959 20 17.0384 20C17.0615 20 17.0859 19.9975 17.1096 19.9919C17.2777 19.9525 17.3821 19.7844 17.3427 19.6156L15.1171 10.115C15.1334 9.23874 15.3471 5.32374 17.7784 0.57686C17.8571 0.42436 17.7965 0.23561 17.6427 0.15686Z" fill="#A4A4A4"/>
</g>
<defs>
<clipPath id="clip0_5778_60">
<rect width="20" height="20" fill="white"/>
</clipPath>
</defs>
</svg>
